{
    "asset" : {
        "generator" : "Khronos glTF Blender I/O v1.6.16",
        "version" : "2.0"
    },
    "scene" : 0,
    "scenes" : [
        {
            "name" : "Scene",
            "nodes" : [
                28
            ]
        }
    ],
    "nodes" : [
        {
            "mesh" : 0,
            "name" : "Body1.006",
            "scale" : [
                10,
                10,
                10
            ]
        },
        {
            "children" : [
                0
            ],
            "name" : "left_grip"
        },
        {
            "children" : [
                1
            ],
            "name" : "left_grip:1"
        },
        {
            "mesh" : 1,
            "name" : "Body1.005",
            "scale" : [
                10,
                10,
                10
            ]
        },
        {
            "children" : [
                3
            ],
            "name" : "right_grip"
        },
        {
            "children" : [
                4
            ],
            "name" : "right_grip:1"
        },
        {
            "children" : [
                2,
                5
            ],
            "name" : "21a_grip_covers_002 v22"
        },
        {
            "children" : [
                6
            ],
            "name" : "21a_grip_covers_002 v22:1",
            "rotation" : [
                0,
                -0.7071068286895752,
                0,
                0.7071067094802856
            ]
        },
        {
            "mesh" : 2,
            "name" : "Body1.001",
            "scale" : [
                10,
                10,
                10
            ]
        },
        {
            "mesh" : 3,
            "name" : "Body2",
            "scale" : [
                10,
                10,
                10
            ]
        },
        {
            "children" : [
                8,
                9
            ],
            "name" : "barrel"
        },
        {
            "children" : [
                10
            ],
            "name" : "barrel:1",
            "translation" : [
                -0.10624004155397415,
                81.40357208251953,
                90.19561767578125
            ]
        },
        {
            "mesh" : 4,
            "name" : "Body1.003",
            "scale" : [
                10,
                10,
                10
            ]
        },
        {
            "children" : [
                12
            ],
            "name" : "frame"
        },
        {
            "children" : [
                13
            ],
            "name" : "frame:1",
            "translation" : [
                0.00665289768949151,
                0,
                0
            ]
        },
        {
            "mesh" : 5,
            "name" : "Body1.002",
            "scale" : [
                10,
                10,
                10
            ]
        },
        {
            "mesh" : 6,
            "name" : "Body2.001",
            "scale" : [
                10,
                10,
                10
            ]
        },
        {
            "children" : [
                15,
                16
            ],
            "name" : "magazine"
        },
        {
            "children" : [
                17
            ],
            "name" : "magazine:1",
            "translation" : [
                -0.14342360198497772,
                -0.13223400712013245,
                -4.601723670959473
            ]
        },
        {
            "mesh" : 7,
            "name" : "Body1",
            "scale" : [
                10,
                10,
                10
            ]
        },
        {
            "children" : [
                19
            ],
            "name" : "slide"
        },
        {
            "children" : [
                20
            ],
            "name" : "slide:1",
            "translation" : [
                -10.356240272521973,
                74.89856719970703,
                72.8606185913086
            ]
        },
        {
            "mesh" : 8,
            "name" : "Body1.004",
            "scale" : [
                10,
                10,
                10
            ]
        },
        {
            "children" : [
                22
            ],
            "name" : "trigger"
        },
        {
            "children" : [
                23
            ],
            "name" : "trigger:1",
            "rotation" : [
                0,
                -1,
                0,
                7.549790126404332e-08
            ],
            "translation" : [
                2.200756788253784,
                45.03607940673828,
                11.988070487976074
            ]
        },
        {
            "children" : [
                11,
                14,
                18,
                21,
                24
            ],
            "name" : "bobkatzbeta1.9.7 v1"
        },
        {
            "children" : [
                25
            ],
            "name" : "bobkatzbeta1.9.7 v1:1"
        },
        {
            "mesh" : 9,
            "name" : "Body1.007",
            "scale" : [
                10,
                10,
                10
            ]
        },
        {
            "children" : [
                7,
                26,
                27
            ],
            "name" : "bobkatzbeta1.8.1 v2",
            "scale" : [
                0.0010000000474974513,
                0.0010000000474974513,
                0.0010000000474974513
            ]
        }
    ],
    "meshes" : [
        {
            "name" : "Body1.006",
            "primitives" : [
                {
                    "attributes" : {
                        "POSITION" : 0,
                        "NORMAL" : 1,
                        "TEXCOORD_0" : 2
                    },
                    "indices" : 3
                }
            ]
        },
        {
            "name" : "Body1.005",
            "primitives" : [
                {
                    "attributes" : {
                        "POSITION" : 4,
                        "NORMAL" : 5,
                        "TEXCOORD_0" : 6
                    },
                    "indices" : 7
                }
            ]
        },
        {
            "name" : "Body1.001",
            "primitives" : [
                {
                    "attributes" : {
                        "POSITION" : 8,
                        "NORMAL" : 9,
                        "TEXCOORD_0" : 10
                    },
                    "indices" : 11
                }
            ]
        },
        {
            "name" : "Body2",
            "primitives" : [
                {
                    "attributes" : {
                        "POSITION" : 12,
                        "NORMAL" : 13,
                        "TEXCOORD_0" : 14
                    },
                    "indices" : 15
                }
            ]
        },
        {
            "name" : "Body1.003",
            "primitives" : [
                {
                    "attributes" : {
                        "POSITION" : 16,
                        "NORMAL" : 17,
                        "TEXCOORD_0" : 18
                    },
                    "indices" : 19
                }
            ]
        },
        {
            "name" : "Body1.002",
            "primitives" : [
                {
                    "attributes" : {
                        "POSITION" : 20,
                        "NORMAL" : 21,
                        "TEXCOORD_0" : 22
                    },
                    "indices" : 23
                }
            ]
        },
        {
            "name" : "Body2.001",
            "primitives" : [
                {
                    "attributes" : {
                        "POSITION" : 24,
                        "NORMAL" : 25,
                        "TEXCOORD_0" : 26
                    },
                    "indices" : 27
                }
            ]
        },
        {
            "name" : "Body1",
            "primitives" : [
                {
                    "attributes" : {
                        "POSITION" : 28,
                        "NORMAL" : 29,
                        "TEXCOORD_0" : 30
                    },
                    "indices" : 31
                }
            ]
        },
        {
            "name" : "Body1.004",
            "primitives" : [
                {
                    "attributes" : {
                        "POSITION" : 32,
                        "NORMAL" : 33,
                        "TEXCOORD_0" : 34
                    },
                    "indices" : 35
                }
            ]
        },
        {
            "name" : "Body1.007",
            "primitives" : [
                {
                    "attributes" : {
                        "POSITION" : 36,
                        "NORMAL" : 37,
                        "TEXCOORD_0" : 38
                    },
                    "indices" : 39
                }
            ]
        }
    ],
    "accessors" : [
        {
            "bufferView" : 0,
            "componentType" : 5126,
            "count" : 2556,
            "max" : [
                2.9892542362213135,
                7.345882415771484,
                -0.778748095035553
            ],
            "min" : [
                -3.283628225326538,
                0.35441961884498596,
                -1.3887481689453125
            ],
            "type" : "VEC3"
        },
        {
            "bufferView" : 1,
            "componentType" : 5126,
            "count" : 2556,
            "type" : "VEC3"
        },
        {
            "bufferView" : 2,
            "componentType" : 5126,
            "count" : 2556,
            "type" : "VEC2"
        },
        {
            "bufferView" : 3,
            "componentType" : 5123,
            "count" : 9996,
            "type" : "SCALAR"
        },
        {
            "bufferView" : 4,
            "componentType" : 5126,
            "count" : 2240,
            "max" : [
                2.9330644607543945,
                7.3404717445373535,
                1.405336856842041
            ],
            "min" : [
                -3.2639458179473877,
                0.34900909662246704,
                0.8053368330001831
            ],
            "type" : "VEC3"
        },
        {
            "bufferView" : 5,
            "componentType" : 5126,
            "count" : 2240,
            "type" : "VEC3"
        },
        {
            "bufferView" : 6,
            "componentType" : 5126,
            "count" : 2240,
            "type" : "VEC2"
        },
        {
            "bufferView" : 7,
            "componentType" : 5123,
            "count" : 8580,
            "type" : "SCALAR"
        },
        {
            "bufferView" : 8,
            "componentType" : 5126,
            "count" : 1107,
            "max" : [
                0.6109610199928284,
                1.1160000562667847,
                0
            ],
            "min" : [
                -0.6109748482704163,
                -1.4739999771118164,
                -6.235000133514404
            ],
            "type" : "VEC3"
        },
        {
            "bufferView" : 9,
            "componentType" : 5126,
            "count" : 1107,
            "type" : "VEC3"
        },
        {
            "bufferView" : 10,
            "componentType" : 5126,
            "count" : 1107,
            "type" : "VEC2"
        },
        {
            "bufferView" : 11,
            "componentType" : 5123,
            "count" : 3708,
            "type" : "SCALAR"
        },
        {
            "bufferView" : 12,
            "componentType" : 5126,
            "count" : 97,
            "max" : [
                0.08749999850988388,
                1.315999984741211,
                -0.5299999713897705
            ],
            "min" : [
                -0.08749999850988388,
                1.1160000562667847,
                -1.659999966621399
            ],
            "type" : "VEC3"
        },
        {
            "bufferView" : 13,
            "componentType" : 5126,
            "count" : 97,
            "type" : "VEC3"
        },
        {
            "bufferView" : 14,
            "componentType" : 5126,
            "count" : 97,
            "type" : "VEC2"
        },
        {
            "bufferView" : 15,
            "componentType" : 5123,
            "count" : 318,
            "type" : "SCALAR"
        },
        {
            "bufferView" : 16,
            "componentType" : 5126,
            "count" : 46003,
            "max" : [
                0.7709394097328186,
                8.077831268310547,
                8.329562187194824
            ],
            "min" : [
                -0.7990604639053345,
                0.18402881920337677,
                -3.916898488998413
            ],
            "type" : "VEC3"
        },
        {
            "bufferView" : 17,
            "componentType" : 5126,
            "count" : 46003,
            "type" : "VEC3"
        },
        {
            "bufferView" : 18,
            "componentType" : 5126,
            "count" : 46003,
            "type" : "VEC2"
        },
        {
            "bufferView" : 19,
            "componentType" : 5123,
            "count" : 160611,
            "type" : "SCALAR"
        },
        {
            "bufferView" : 20,
            "componentType" : 5126,
            "count" : 111,
            "max" : [
                0.6259999871253967,
                0.20000000298023224,
                1.4665000438690186
            ],
            "min" : [
                -0.6259999871253967,
                0,
                -1.4665000438690186
            ],
            "type" : "VEC3"
        },
        {
            "bufferView" : 21,
            "componentType" : 5126,
            "count" : 111,
            "type" : "VEC3"
        },
        {
            "bufferView" : 22,
            "componentType" : 5126,
            "count" : 111,
            "type" : "VEC2"
        },
        {
            "bufferView" : 23,
            "componentType" : 5123,
            "count" : 354,
            "type" : "SCALAR"
        },
        {
            "bufferView" : 24,
            "componentType" : 5126,
            "count" : 549,
            "max" : [
                0.45750001072883606,
                8.449999809265137,
                3.166165590286255
            ],
            "min" : [
                -0.45750001072883606,
                -5.551115123125783e-17,
                -1.4665000438690186
            ],
            "type" : "VEC3"
        },
        {
            "bufferView" : 25,
            "componentType" : 5126,
            "count" : 549,
            "type" : "VEC3"
        },
        {
            "bufferView" : 26,
            "componentType" : 5126,
            "count" : 549,
            "type" : "VEC2"
        },
        {
            "bufferView" : 27,
            "componentType" : 5123,
            "count" : 1710,
            "type" : "SCALAR"
        },
        {
            "bufferView" : 28,
            "componentType" : 5126,
            "count" : 619,
            "max" : [
                2.049999952316284,
                1.7899740934371948,
                0.05999999865889549
            ],
            "min" : [
                -0.003436604281887412,
                -2.600455263745971e-05,
                -9.473897933959961
            ],
            "type" : "VEC3"
        },
        {
            "bufferView" : 29,
            "componentType" : 5126,
            "count" : 619,
            "type" : "VEC3"
        },
        {
            "bufferView" : 30,
            "componentType" : 5126,
            "count" : 619,
            "type" : "VEC2"
        },
        {
            "bufferView" : 31,
            "componentType" : 5123,
            "count" : 1722,
            "type" : "SCALAR"
        },
        {
            "bufferView" : 32,
            "componentType" : 5126,
            "count" : 805,
            "max" : [
                0.5490000247955322,
                3.042670726776123,
                -2.567682981491089
            ],
            "min" : [
                -0.07999999821186066,
                -0.2563292384147644,
                -3.2946829795837402
            ],
            "type" : "VEC3"
        },
        {
            "bufferView" : 33,
            "componentType" : 5126,
            "count" : 805,
            "type" : "VEC3"
        },
        {
            "bufferView" : 34,
            "componentType" : 5126,
            "count" : 805,
            "type" : "VEC2"
        },
        {
            "bufferView" : 35,
            "componentType" : 5123,
            "count" : 2778,
            "type" : "SCALAR"
        },
        {
            "bufferView" : 36,
            "componentType" : 5126,
            "count" : 1496,
            "max" : [
                0.41298919916152954,
                6.510082721710205,
                8.118562698364258
            ],
            "min" : [
                -0.4120107889175415,
                3.3049657344818115,
                3.383333444595337
            ],
            "type" : "VEC3"
        },
        {
            "bufferView" : 37,
            "componentType" : 5126,
            "count" : 1496,
            "type" : "VEC3"
        },
        {
            "bufferView" : 38,
            "componentType" : 5126,
            "count" : 1496,
            "type" : "VEC2"
        },
        {
            "bufferView" : 39,
            "componentType" : 5123,
            "count" : 6522,
            "type" : "SCALAR"
        }
    ],
    "bufferViews" : [
        {
            "buffer" : 0,
            "byteLength" : 30672,
            "byteOffset" : 0
        },
        {
            "buffer" : 0,
            "byteLength" : 30672,
            "byteOffset" : 30672
        },
        {
            "buffer" : 0,
            "byteLength" : 20448,
            "byteOffset" : 61344
        },
        {
            "buffer" : 0,
            "byteLength" : 19992,
            "byteOffset" : 81792
        },
        {
            "buffer" : 0,
            "byteLength" : 26880,
            "byteOffset" : 101784
        },
        {
            "buffer" : 0,
            "byteLength" : 26880,
            "byteOffset" : 128664
        },
        {
            "buffer" : 0,
            "byteLength" : 17920,
            "byteOffset" : 155544
        },
        {
            "buffer" : 0,
            "byteLength" : 17160,
            "byteOffset" : 173464
        },
        {
            "buffer" : 0,
            "byteLength" : 13284,
            "byteOffset" : 190624
        },
        {
            "buffer" : 0,
            "byteLength" : 13284,
            "byteOffset" : 203908
        },
        {
            "buffer" : 0,
            "byteLength" : 8856,
            "byteOffset" : 217192
        },
        {
            "buffer" : 0,
            "byteLength" : 7416,
            "byteOffset" : 226048
        },
        {
            "buffer" : 0,
            "byteLength" : 1164,
            "byteOffset" : 233464
        },
        {
            "buffer" : 0,
            "byteLength" : 1164,
            "byteOffset" : 234628
        },
        {
            "buffer" : 0,
            "byteLength" : 776,
            "byteOffset" : 235792
        },
        {
            "buffer" : 0,
            "byteLength" : 636,
            "byteOffset" : 236568
        },
        {
            "buffer" : 0,
            "byteLength" : 552036,
            "byteOffset" : 237204
        },
        {
            "buffer" : 0,
            "byteLength" : 552036,
            "byteOffset" : 789240
        },
        {
            "buffer" : 0,
            "byteLength" : 368024,
            "byteOffset" : 1341276
        },
        {
            "buffer" : 0,
            "byteLength" : 321222,
            "byteOffset" : 1709300
        },
        {
            "buffer" : 0,
            "byteLength" : 1332,
            "byteOffset" : 2030524
        },
        {
            "buffer" : 0,
            "byteLength" : 1332,
            "byteOffset" : 2031856
        },
        {
            "buffer" : 0,
            "byteLength" : 888,
            "byteOffset" : 2033188
        },
        {
            "buffer" : 0,
            "byteLength" : 708,
            "byteOffset" : 2034076
        },
        {
            "buffer" : 0,
            "byteLength" : 6588,
            "byteOffset" : 2034784
        },
        {
            "buffer" : 0,
            "byteLength" : 6588,
            "byteOffset" : 2041372
        },
        {
            "buffer" : 0,
            "byteLength" : 4392,
            "byteOffset" : 2047960
        },
        {
            "buffer" : 0,
            "byteLength" : 3420,
            "byteOffset" : 2052352
        },
        {
            "buffer" : 0,
            "byteLength" : 7428,
            "byteOffset" : 2055772
        },
        {
            "buffer" : 0,
            "byteLength" : 7428,
            "byteOffset" : 2063200
        },
        {
            "buffer" : 0,
            "byteLength" : 4952,
            "byteOffset" : 2070628
        },
        {
            "buffer" : 0,
            "byteLength" : 3444,
            "byteOffset" : 2075580
        },
        {
            "buffer" : 0,
            "byteLength" : 9660,
            "byteOffset" : 2079024
        },
        {
            "buffer" : 0,
            "byteLength" : 9660,
            "byteOffset" : 2088684
        },
        {
            "buffer" : 0,
            "byteLength" : 6440,
            "byteOffset" : 2098344
        },
        {
            "buffer" : 0,
            "byteLength" : 5556,
            "byteOffset" : 2104784
        },
        {
            "buffer" : 0,
            "byteLength" : 17952,
            "byteOffset" : 2110340
        },
        {
            "buffer" : 0,
            "byteLength" : 17952,
            "byteOffset" : 2128292
        },
        {
            "buffer" : 0,
            "byteLength" : 11968,
            "byteOffset" : 2146244
        },
        {
            "buffer" : 0,
            "byteLength" : 13044,
            "byteOffset" : 2158212
        }
    ],
    "buffers" : [
        {
            "byteLength" : 2171256,
            "uri" : "data:application/octet-stream;base64,"
        }
    ]
}
